#!OML:ASF F:\VICON\USERDATA\INSTALL\rory3\rory3.ASF
:FULLY-SPECIFIED
:DEGREES
243
root -7.91114 17.9368 2.35158 -7.38632 -41.2031 3.55103
lowerback 13.0562 2.66584 1.70835
upperback 1.67803 3.72324 -0.371061
thorax -5.40708 1.77908 -1.99696
lowerneck -17.1944 3.32103 -8.83291
upperneck 41.0012 6.63573 3.37636
head 17.6152 1.59363 4.34975
rclavicle -3.8266e-014 -2.38542e-015
rhumerus -37.8922 -20.8417 -70.3288
rradius 30.9522
rwrist 3.83016
rhand -19.0947 7.57654
rfingers 7.12502
rthumb 7.21379 -22.2805
lclavicle -3.8266e-014 -2.38542e-015
lhumerus -39.2523 22.0413 71.4293
lradius 30.8914
lwrist -10.2267
lhand -24.8145 22.6626
lfingers 7.12502
lthumb 1.69072 52.6356
rfemur -2.26847 -1.27087 17.7355
rtibia 28.2744
rfoot -15.6564 -10.3836
rtoes 5.45705
lfemur -13.6097 -1.61525 -10.2833
ltibia 29.3327
lfoot 1.1473 6.16676
ltoes 2.6811
244
root -7.89532 17.9419 2.39952 -7.4188 -41.0385 3.61249
lowerback 13.0198 2.70994 1.65809
upperback 1.68387 3.77041 -0.433622
thorax -5.37766 1.80345 -2.04001
lowerneck -17.2733 3.31765 -8.85207
upperneck 41.009 6.63233 3.43164
head 17.6356 1.59754 4.38257
rclavicle -3.47873e-015 0
rhumerus -37.8168 -20.5071 -70.4707
rradius 31.1835
rwrist 3.67937
rhand -19.0246 7.54142
rfingers 7.12502
rthumb 7.28145 -22.3133
lclavicle -3.47873e-015 0
lhumerus -39.5225 22.9043 70.7389
lradius 30.23
lwrist -10.7338
lhand -23.4245 23.6578
lfingers 7.12502
lthumb 3.03316 53.616
rfemur -2.09454 -1.23147 17.5136
rtibia 28.158
rfoot -15.6387 -10.4775
rtoes 5.59017
lfemur -13.235 -1.69676 -9.96098
ltibia 28.4369
lfoot 1.64207 6.64698
ltoes 1.80965
245
root -7.87814 17.9391 2.44232 -7.26661 -40.9916 3.51863
lowerback 12.9581 2.8208 1.63596
upperback 1.63807 3.9146 -0.43491
thorax -5.38708 1.87471 -2.05135
lowerneck -17.2521 3.31654 -8.91549
upperneck 41.0037 6.60576 3.55597
head 17.6171 1.59852 4.4451
rclavicle -1.19991e-013 1.63003e-014
rhumerus -37.722 -20.363 -70.5007
rradius 31.2749
rwrist 3.69569
rhand -18.7587 7.54292
rfingers 7.12502
rthumb 7.53805 -22.3028
lclavicle -1.19991e-013 1.63003e-014
lhumerus -39.7414 23.4212 70.2582
lradius 29.6309
lwrist -10.7736
lhand -22.3558 25.6932
lfingers 7.12502
lthumb 4.06515 55.6342
rfemur -2.06604 -1.12883 17.454
rtibia 28.05
rfoot -15.5632 -10.6449
rtoes 5.12296
lfemur -12.9114 -1.69512 -9.45897
ltibia 27.518
lfoot 2.15875 7.22056
ltoes 2.18742
246
root -7.85983 17.9336 2.49168 -7.10509 -40.9179 3.32257
lowerback 12.9148 2.89838 1.6723
upperback 1.57168 4.02847 -0.356342
thorax -5.43162 1.92983 -2.00853
lowerneck -16.9223 3.34808 -9.00269
upperneck 40.834 6.64953 3.53343
head 17.4279 1.61903 4.43116
rclavicle -4.27139e-014 8.34896e-015
rhumerus -37.6771 -20.0031 -70.4884
rradius 31.3462
rwrist 3.68499
rhand -18.7237 7.3415
rfingers 7.12502
rthumb 7.5718 -22.503
lclavicle -4.27139e-014 8.34896e-015
lhumerus -40.0484 24.0229 69.7695
lradius 28.952
lwrist -10.7674
lhand -21.5048 28.6407
lfingers 7.12502
lthumb 4.88689 58.5643
rfemur -1.96524 -1.15086 17.4485
rtibia 27.9693
rfoot -15.5398 -10.7147
rtoes 4.53517
lfemur -12.508 -1.74466 -8.89926
ltibia 26.595
lfoot 2.65727 7.71297
ltoes 3.20177
247
root -7.84004 17.9286 2.54531 -7.05951 -40.7428 3.25454
lowerback 12.8582 2.90512 1.73033
upperback 1.56884 4.04307 -0.390241
thorax -5.39618 1.93639 -2.07552
lowerneck -16.7737 3.37574 -9.04119
upperneck 40.6704 6.67056 3.56661
head 17.2902 1.64264 4.43933
rclavicle 8.87077e-015 0
rhumerus -37.6097 -19.5342 -70.7001
rradius 31.574
rwrist 3.73361
rhand -18.4718 7.29371
rfingers 7.12502
rthumb 7.81498 -22.5419
lclavicle 8.87077e-015 0
lhumerus -40.349 24.9584 68.9907
lradius 28.4114
lwrist -11.09
lhand -20.0447 32.2377
lfingers 7.12502
lthumb 6.29669 62.1241
rfemur -1.81491 -1.19606 17.3225
rtibia 27.9226
rfoot -15.5658 -10.8614
rtoes 3.98042
lfemur -12.0809 -1.86927 -8.50772
ltibia 25.6645
lfoot 3.15054 8.03872
ltoes 2.79226
248
root -7.81755 17.9237 2.59723 -7.04288 -40.4587 3.26857
lowerback 12.8214 2.88918 1.72937
upperback 1.59825 4.01656 -0.46188
thorax -5.34068 1.92405 -2.1421
lowerneck -16.8752 3.36686 -8.994
upperneck 40.5847 6.66045 3.55816
head 17.2717 1.65107 4.42581
rclavicle 8.90555e-014 -1.63003e-014
rhumerus -37.3589 -19.4989 -70.8034
rradius 31.5509
rwrist 4.23093
rhand -18.2048 7.69864
rfingers 7.12502
rthumb 8.0727 -22.1272
lclavicle 8.90555e-014 -1.63003e-014
lhumerus -40.538 25.7986 68.3426
lradius 28.0625
lwrist -11.1943
lhand -22.0426 27.3253
lfingers 7.12502
lthumb 4.36765 57.2602
rfemur -1.68396 -1.22687 17.1317
rtibia 27.8951
rfoot -15.6283 -11.0969
rtoes 3.86412
lfemur -11.714 -2.05679 -8.20603
ltibia 24.7257
lfoot 3.66614 8.2526
ltoes 2.56301
249
root -7.79489 17.9167 2.65213 -7.05062 -40.2135 3.18326
lowerback 12.9135 2.91656 1.74544
upperback 1.58404 4.05686 -0.460157
thorax -5.40383 1.94216 -2.16226
lowerneck -16.8763 3.3505 -8.92214
upperneck 40.5525 6.64408 3.48719
head 17.2641 1.64886 4.37737
rclavicle 4.23908e-014 7.55382e-015
rhumerus -37.1523 -19.3404 -70.843
rradius 31.4058
rwrist 4.43133
rhand -18.2531 8.08453
rfingers 7.12502
rthumb 8.0261 -21.7431
lclavicle 4.23908e-014 7.55382e-015
lhumerus -40.746 26.0684 67.9997
lradius 27.6897
lwrist -10.8958
lhand -23.0656 24.3745
lfingers 7.12502
lthumb 3.37975 54.3275
rfemur -1.45419 -1.25674 17.0041
rtibia 27.887
rfoot -15.7509 -11.287
rtoes 4.24836
lfemur -11.2447 -2.2122 -7.83274
ltibia 23.8042
lfoot 4.32071 8.55048
ltoes 2.76543
250
root -7.77403 17.9095 2.70734 -7.16068 -40.0655 3.19854
lowerback 12.9876 2.97432 1.64367
upperback 1.57546 4.12072 -0.452503
thorax -5.45877 1.97453 -2.11306
lowerneck -16.8256 3.37638 -8.86311
upperneck 40.5997 6.6852 3.43296
head 17.28 1.66536 4.35064
rclavicle 1.02846e-013 -3.97569e-016
rhumerus -37.0223 -18.9235 -70.9559
rradius 31.4098
rwrist 4.3956
rhand -18.1325 8.36697
rfingers 7.12502
rthumb 8.1425 -21.4562
lclavicle 1.02846e-013 -3.97569e-016
lhumerus -41.0634 26.492 67.5497
lradius 27.185
lwrist -10.9844
lhand -23.5954 22.8153
lfingers 7.12502
lthumb 2.86815 52.7758
rfemur -1.21701 -1.23972 16.7992
rtibia 27.9051
rfoot -15.8413 -11.426
rtoes 4.21428
lfemur -10.6813 -2.39374 -7.5414
ltibia 22.898
lfoot 5.01363 9.04257
ltoes 3.76389
251
root -7.75211 17.9027 2.76103 -7.09665 -39.9185 3.11237
lowerback 12.983 2.99262 1.62074
upperback 1.54916 4.1434 -0.436026
thorax -5.48588 1.9858 -2.08762
lowerneck -16.928 3.39399 -8.93171
upperneck 40.7273 6.72717 3.5156
head 17.3654 1.67462 4.42006
rclavicle -5.9039e-014 -5.96354e-015
rhumerus -36.7793 -18.5937 -71.1058
rradius 31.3381
rwrist 4.43555
rhand -17.7766 8.74592
rfingers 7.12502
rthumb 8.48598 -21.0636
lclavicle -5.9039e-014 -5.96354e-015
lhumerus -41.3754 27.1417 66.9696
lradius 26.6665
lwrist -11.4071
lhand -23.115 24.1952
lfingers 7.12502
lthumb 3.33203 54.1489
rfemur -1.09979 -1.25279 16.6852
rtibia 27.9214
rfoot -15.8756 -11.55
rtoes 3.84972
lfemur -10.2386 -2.70102 -7.17581
ltibia 22.0141
lfoot 5.74499 9.61276
ltoes 4.86166
252
root -7.72691 17.9002 2.81895 -7.05653 -39.7439 3.07548
lowerback 12.9704 3.01125 1.60846
upperback 1.54811 4.16545 -0.451047
thorax -5.47881 1.99697 -2.09945
lowerneck -17.0619 3.42765 -8.93746
upperneck 40.8308 6.77244 3.60467
head 17.4468 1.69761 4.48271
rclavicle -3.79679e-014 1.19271e-015
rhumerus -36.4715 -18.4078 -71.2556
rradius 31.2109
rwrist 4.49164
rhand -17.5936 8.81257
rfingers 7.12502
rthumb 8.6625 -20.9897
lclavicle -3.79679e-014 1.19271e-015
lhumerus -41.5641 27.4076 66.7169
lradius 26.266
lwrist -10.9496
lhand -22.2795 26.5237
lfingers 7.12502
lthumb 4.13891 56.4632
rfemur -0.987856 -1.25939 16.5097
rtibia 27.9452
rfoot -15.9798 -11.6582
rtoes 3.62382
lfemur -9.79565 -3.20622 -6.90598
ltibia 21.1461
lfoot 6.50623 10.2862
ltoes 4.73705
253
root -7.70262 17.8984 2.88184 -7.07783 -39.4975 3.10292
lowerback 12.895 3.04501 1.57572
upperback 1.58144 4.20226 -0.48374
thorax -5.40019 2.01728 -2.11536
lowerneck -17.1038 3.42958 -8.86463
upperneck 40.816 6.78141 3.55515
head 17.4553 1.70758 4.45107
rclavicle 4.54223e-014 -7.95139e-016
rhumerus -36.2917 -17.9153 -71.4678
rradius 31.3246
rwrist 4.10321
rhand -17.662 8.61158
rfingers 7.12502
rthumb 8.5965 -21.1934
lclavicle 4.54223e-014 -7.95139e-016
lhumerus -41.6785 27.586 66.5959
lradius 25.8498
lwrist -10.154
lhand -21.8105 27.4269
lfingers 7.12502
lthumb 4.59173 57.3572
rfemur -0.81044 -1.2783 16.2688
rtibia 27.9488
rfoot -16.1001 -11.8125
rtoes 4.02231
lfemur -9.3482 -3.75246 -6.73744
ltibia 20.3439
lfoot 7.16684 11.1291
ltoes 6.22
